{"title":"48 Hours-The Last Confession -Fatal0ty.mp4","uid":9685332,"size":238885306,"categoryP":"video","categoryS":"tv_shows","magnet":"?xt=urn:btih:d146c792a80360926bf6b5710a1357e91c4bc627&amp;dn=48+Hours-The+Last+Confession+-Fatal0ty.mp4&amp;tr=udp%3A%2F%2Ftracker.openbittorrent.com%3A80&amp;tr=udp%3A%2F%2Fopen.demonii.com%3A1337&amp;tr=udp%3A%2F%2Ftracker.coppersurfer.tk%3A6969&amp;tr=udp%3A%2F%2Fexodus.desync.com%3A6969","seeders":3,"leechers":0,"uploader":"gate4","files":1,"time":1393753629,"description":"A beauty queen is found murdered. The prime suspect -- the priest who heard her confession. Richard Schlesinger reports.\n\nHours-The Last Confession -Fatal0ty.mp4\nFormat : MPEG-4\nFormat profile : Base Media\nCodec ID : isom\nFile size : 228 MiB\nDuration : 41mn 59s\nOverall bit rate mode : Variable\nOverall bit rate : 759 Kbps\nWriting application : Lavf54.59.106\n\nVideo\nID : 1\nFormat : AVC\nFormat/Info : Advanced Video Codec\nFormat profile : &lt;a class=&quot;__cf_email__&quot; href=&quot;/cdn-cgi/l/email-protection&quot; data-cfemail=&quot;b5f8d4dcdbf5f9869b84&quot;&gt;[email&amp;#160;protected]&lt;/a&gt;&lt;script cf-hash='f9e31' type=&quot;text/javascript&quot;&gt;\n/* &lt;![CDATA[ */!function(){try{var t=&quot;currentScript&quot;in document?document.currentScript:function(){for(var t=document.getElementsByTagName(&quot;script&quot;),e=t.length;e--;)if(t[e].getAttribute(&quot;cf-hash&quot;))return t[e]}();if(t&amp;&amp;t.previousSibling){var e,r,n,i,c=t.previousSibling,a=c.getAttribute(&quot;data-cfemail&quot;);if(a){for(e=&quot;&quot;,r=parseInt(a.substr(0,2),16),n=2;a.length-n;n+=2)i=parseInt(a.substr(n,2),16)^r,e+=String.fromCharCode(i);e=document.createTextNode(e),c.parentNode.replaceChild(e,c)}}}catch(u){}}();/* ]]&gt; */&lt;/script&gt;\nFormat settings, CABAC : Yes\nFormat settings, ReFrames : 5 frames\nFormat settings, GOP : M=1, N=90\nCodec ID : avc1\nCodec ID/Info : Advanced Video Coding\nDuration : 41mn 59s\nBit rate : 700 Kbps\nWidth : 640 pixels\nHeight : 360 pixels\nDisplay aspect ratio : 16:9\nFrame rate mode : Constant\nFrame rate : 29.970 fps\nColor space : YUV\nChroma subsampling : 4:2:0\nBit depth : 8 bits\nScan type : Progressive\nBits/(Pixel*Frame) : 0.101\nStream size : 208 MiB (91%)\nWriting library : x264 core 129\nLanguage : English\n\n\nAudio\nID : 2\nFormat : AAC\nFormat/Info : Advanced Audio Codec\nFormat profile : LC\nCodec ID : 40\nDuration : 41mn 59s\nDuration_LastFrame : -35ms\nBit rate mode : Variable\nBit rate : 31.0 Kbps\nMaximum bit rate : 875 Kbps\nChannel(s) : 2 channels\nChannel positions : Front: L R\nSampling rate : 22.05 KHz\nCompression mode : Lossy\nStream size : 9.31 MiB (4%)\nLanguage : English","torrent":{"xt":"urn:btih:d146c792a80360926bf6b5710a1357e91c4bc627","amp;dn":"48+Hours-The+Last+Confession+-Fatal0ty.mp4","amp;tr":["udp%3A%2F%2Ftracker.openbittorrent.com%3A80","udp%3A%2F%2Fopen.demonii.com%3A1337","udp%3A%2F%2Ftracker.coppersurfer.tk%3A6969","udp%3A%2F%2Fexodus.desync.com%3A6969"],"infoHash":"d146c792a80360926bf6b5710a1357e91c4bc627","infoHashBuffer":{"type":"Buffer","data":[209,70,199,146,168,3,96,146,107,246,181,113,10,19,87,233,28,75,198,39]},"announce":[],"urlList":[]}}